<?xml version="1.0" standalone="no"?>
<!DOCTYPE svg PUBLIC "-//W3C//DTD SVG 20010904//EN"
 "http://www.w3.org/TR/2001/REC-SVG-20010904/DTD/svg10.dtd">
<svg version="1.0" xmlns="http://www.w3.org/2000/svg"
 width="200.000000pt" height="200.000000pt" viewBox="0 0 200.000000 200.000000"
 preserveAspectRatio="xMidYMid meet">

<g transform="translate(0.000000,200.000000) scale(0.100000,-0.100000)"
fill="#000000" stroke="none">
<path d="M62 1993 c37 -2 100 -2 140 0 40 1 10 3 -67 3 -77 0 -110 -1 -73 -3z"/>
<path d="M1994 1915 c0 -49 1 -71 3 -48 2 23 2 64 0 90 -2 26 -3 8 -3 -42z"/>
<path d="M782 1930 c-62 -14 -172 -103 -172 -138 0 -6 -9 -29 -20 -49 -24 -45
-25 -92 -4 -162 13 -44 13 -59 3 -83 -15 -36 -2 -87 37 -143 39 -59 65 -130
51 -144 -6 -6 -8 -11 -4 -11 3 0 -5 -11 -19 -25 -14 -14 -27 -25 -29 -25 -3 0
-5 11 -5 25 0 27 -7 30 -30 15 -13 -8 -12 -10 3 -10 9 0 17 -4 17 -10 0 -13
-3 -13 -35 2 -14 6 -24 17 -21 25 4 9 -5 12 -34 10 -40 -2 -60 -23 -45 -47 3
-6 -4 -10 -17 -11 -13 0 -36 -3 -51 -5 -18 -3 -26 -1 -22 5 3 6 -2 22 -12 36
-14 19 -27 24 -58 24 -35 0 -38 -1 -22 -13 9 -7 17 -17 17 -22 0 -4 -5 -3 -12
4 -20 20 -58 15 -58 -7 0 -11 -9 -23 -20 -26 -11 -3 -20 -13 -20 -21 0 -16
-17 -19 -22 -4 -2 6 -15 4 -32 -5 -15 -8 -39 -12 -52 -9 -17 4 -24 2 -24 -7 1
-32 36 -50 52 -27 8 10 11 10 15 1 8 -22 83 -13 83 9 0 5 -6 6 -12 2 -9 -5 -9
-2 1 9 14 18 36 24 26 7 -3 -5 -1 -10 4 -10 6 0 11 5 11 10 0 6 12 10 26 10
14 0 23 4 19 10 -13 22 7 31 26 12 16 -17 29 -20 95 -17 42 2 89 -1 104 -5 16
-5 31 -6 34 -2 3 3 17 7 31 8 23 2 25 0 19 -19 -9 -25 -9 -36 -1 -97 l6 -45
-10 47 -11 46 -136 -85 c-214 -134 -232 -157 -238 -292 -2 -47 -9 -117 -15
-156 -11 -67 -8 -221 7 -432 l7 -83 688 0 689 0 0 29 c0 16 -4 41 -9 54 -6 14
-16 56 -25 94 -8 37 -40 166 -70 286 -31 119 -65 268 -75 330 -11 61 -24 124
-30 139 -12 31 -53 55 -174 99 -45 17 -86 37 -91 46 -7 13 -10 13 -17 2 -8
-12 -11 -12 -18 1 -5 8 -7 18 -5 22 8 12 92 9 96 -3 3 -9 44 -9 163 0 88 7
268 16 400 21 132 6 246 12 253 15 8 3 12 35 12 110 0 58 -2 105 -5 105 -3 0
-22 -9 -42 -20 -21 -11 -46 -20 -57 -20 -13 0 -17 -5 -13 -20 6 -23 -11 -30
-65 -28 -25 1 -38 6 -38 15 0 9 -7 12 -23 8 -15 -4 -28 -1 -37 10 -10 12 -15
13 -21 3 -10 -16 -16 -10 -25 26 -6 25 -4 28 10 23 17 -7 66 11 66 23 0 17
-40 16 -67 -1 -15 -10 -35 -19 -43 -18 -10 0 -11 2 -2 6 6 2 10 9 6 14 -8 14
-24 11 -24 -6 0 -8 -5 -15 -11 -15 -6 0 -8 -9 -4 -20 5 -15 2 -20 -13 -20 -11
0 -31 -9 -46 -21 -16 -12 -33 -18 -45 -14 -22 7 -40 -13 -22 -24 6 -4 9 -15 6
-23 -5 -12 -1 -14 19 -11 14 3 26 10 26 15 0 5 -4 6 -10 3 -6 -3 -7 1 -3 10 4
12 8 13 13 5 6 -9 9 -9 13 1 3 8 3 -8 0 -36 -3 -27 -7 -52 -10 -55 -8 -8 -73
-7 -73 2 0 4 7 8 16 8 8 0 12 5 8 11 -3 6 -17 9 -30 6 -19 -3 -22 -1 -14 8 8
9 8 15 0 20 -5 3 -10 1 -10 -5 0 -6 -4 -8 -10 -5 -5 3 -10 -1 -10 -9 0 -16 -4
-18 -37 -19 -10 -1 -21 -6 -25 -12 -4 -5 -8 0 -8 13 0 14 6 22 18 22 14 0 15
2 2 10 -12 8 -11 10 6 10 23 0 29 26 8 34 -8 3 -11 11 -8 19 3 8 -2 20 -11 27
-12 10 -20 11 -38 1 -28 -15 -87 3 -69 21 6 6 8 17 5 24 -3 8 1 14 10 14 18 0
11 40 -7 41 -6 0 -21 2 -33 3 -25 3 -31 -9 -10 -17 11 -5 -17 -11 -35 -8 -5 0
-8 -3 -8 -9 0 -5 -16 -12 -35 -16 -28 -5 -33 -9 -25 -19 8 -10 7 -16 -7 -24
-16 -9 -14 -10 11 -11 21 0 27 -4 22 -15 -3 -8 -1 -15 3 -15 15 0 22 32 10 46
-6 8 -7 14 -2 14 17 0 33 -24 33 -49 0 -13 3 -21 7 -18 8 9 32 -38 35 -71 2
-15 8 -31 13 -35 6 -5 0 -7 -12 -4 -12 3 -21 1 -20 -5 1 -5 -21 -11 -50 -11
-28 -1 -55 -5 -59 -9 -14 -15 -26 -8 -21 12 3 11 1 18 -4 14 -5 -3 -9 -12 -9
-19 0 -8 -6 -12 -14 -9 -11 4 -15 -18 -21 -113 -6 -120 -29 -211 -53 -221 -7
-2 -28 9 -46 27 -17 17 -38 31 -46 31 -7 0 -24 10 -37 22 -30 28 -34 22 -16
-27 22 -60 21 -70 -6 -70 -21 0 -25 8 -42 72 -10 40 -23 81 -28 92 -17 32 -13
49 7 26 25 -30 64 -55 85 -55 15 0 17 5 11 35 -3 19 -4 35 -1 35 3 0 20 -13
38 -30 43 -38 62 -26 58 39 -2 25 1 57 5 70 6 18 4 26 -8 33 -25 14 -19 26 24
53 22 14 40 29 40 33 0 4 -26 15 -57 23 -31 8 -58 20 -61 27 -2 7 12 19 31 27
48 20 55 35 18 35 -16 0 -33 5 -36 10 -6 9 12 13 75 14 14 1 26 6 28 11 2 11
-1 12 -63 14 -25 0 -45 6 -45 12 0 6 9 8 22 4 17 -6 20 -4 15 9 -5 12 1 20 20
27 21 8 24 12 14 19 -8 4 -20 6 -28 3 -7 -3 -21 1 -29 8 -14 11 -16 27 -10 97
5 64 3 82 -6 81 -7 -1 -31 1 -53 5 -39 8 -40 9 -41 51 0 25 -6 51 -13 59 -7 8
-8 16 -4 19 53 32 88 47 108 47 28 0 155 -64 173 -87 7 -10 12 -47 12 -92 0
-87 11 -86 34 4 26 98 22 133 -25 201 -47 68 -68 87 -126 114 -44 21 -119 25
-181 10z m18 -486 c0 -33 -33 -30 -38 4 -3 17 2 22 17 22 16 0 21 -6 21 -26z
m420 -129 c0 -8 4 -15 9 -15 11 0 20 -66 10 -81 -9 -15 -47 71 -41 93 5 22 22
24 22 3z m55 -47 c6 -4 2 -8 -7 -8 -10 0 -18 7 -18 17 0 9 3 12 8 7 4 -5 12
-12 17 -16z m320 -38 c4 0 15 5 26 10 13 7 19 7 19 0 0 -5 0 -13 0 -17 0 -5
-16 -8 -35 -8 -33 -1 -35 2 -34 30 0 28 1 28 9 8 5 -13 12 -23 15 -23z m318
-4 c-13 -18 -27 -25 -49 -24 -17 1 -37 -2 -44 -7 -16 -10 -118 -17 -147 -10
-16 4 -20 10 -16 26 8 29 27 34 159 37 l116 3 -19 -25z m-1367 -68 c4 -5 -7
-8 -24 -8 -18 0 -32 4 -32 8 0 10 46 10 56 0z m564 -189 c0 -6 -4 -7 -10 -4
-5 3 -10 11 -10 16 0 6 5 7 10 4 6 -3 10 -11 10 -16z m-461 -104 c0 -5 -6 1
-14 15 -8 14 -14 30 -14 35 0 6 6 -1 14 -15 8 -14 14 -29 14 -35z m31 -56 c0
-6 -4 -7 -10 -4 -5 3 -10 11 -10 16 0 6 5 7 10 4 6 -3 10 -11 10 -16z m362
-161 c3 -18 8 -41 13 -50 5 -13 3 -18 -8 -18 -19 0 -27 21 -27 71 0 47 16 44
22 -3z"/>
<path d="M927 1593 c-12 -12 -7 -33 15 -63 16 -23 30 -30 55 -30 23 0 33 5 33
15 0 8 8 15 18 16 9 0 2 6 -16 13 -18 6 -30 15 -26 18 4 4 15 3 26 -3 28 -15
33 -4 9 20 -15 15 -34 21 -64 21 -24 0 -47 -3 -50 -7z"/>
<path d="M1102 1494 c7 -15 14 -21 16 -15 5 16 -5 41 -17 41 -7 0 -6 -10 1
-26z"/>
<path d="M1090 1446 c0 -9 5 -16 10 -16 6 0 10 4 10 9 0 6 -4 13 -10 16 -5 3
-10 -1 -10 -9z"/>
<path d="M1892 1381 c8 -14 14 -16 24 -7 15 14 8 26 -17 26 -16 0 -17 -3 -7
-19z"/>
<path d="M1800 1371 c0 -11 31 -24 39 -16 3 3 -1 10 -9 15 -19 12 -30 12 -30
1z"/>
<path d="M1916 1344 c-10 -25 1 -29 14 -5 6 12 7 21 1 21 -5 0 -12 -7 -15 -16z"/>
<path d="M1807 1323 c-10 -9 -8 -43 2 -43 5 0 14 7 21 15 17 21 -4 48 -23 28z"/>
<path d="M33 1231 c-32 -27 -39 -45 -28 -73 5 -13 24 -14 128 -8 4 0 7 5 7 11
0 6 -7 8 -15 5 -9 -3 -18 1 -21 8 -3 8 -12 17 -19 20 -9 3 -12 0 -9 -8 3 -8 1
-17 -5 -21 -7 -3 -11 3 -11 15 0 12 -4 18 -10 15 -6 -3 -10 1 -10 10 0 14 6
16 27 11 30 -8 48 11 31 31 -15 19 -29 16 -65 -16z"/>
<path d="M1445 1240 c-3 -5 -1 -10 4 -10 6 0 11 5 11 10 0 6 -2 10 -4 10 -3 0
-8 -4 -11 -10z"/>
<path d="M575 1220 c4 -6 11 -8 16 -5 14 9 11 15 -7 15 -8 0 -12 -5 -9 -10z"/>
<path d="M1180 1225 c-2 -5 -2 -14 -1 -18 1 -5 -8 -5 -20 -2 -15 5 -19 4 -15
-4 4 -6 2 -11 -3 -11 -6 0 -11 3 -11 8 0 4 -14 8 -30 9 -17 1 -30 -2 -30 -7 0
-5 -8 -11 -17 -14 -10 -3 -5 -4 11 -2 16 2 36 -2 43 -10 17 -16 33 -18 33 -4
0 6 8 10 18 10 28 0 40 13 31 35 -4 11 -8 16 -9 10z"/>
<path d="M430 1174 c0 -8 5 -12 10 -9 6 3 10 10 10 16 0 5 -4 9 -10 9 -5 0
-10 -7 -10 -16z"/>
<path d="M1496 1174 c-4 -10 -1 -14 6 -12 15 5 23 28 10 28 -5 0 -13 -7 -16
-16z"/>
<path d="M400 1170 c0 -5 5 -10 11 -10 5 0 7 5 4 10 -3 6 -8 10 -11 10 -2 0
-4 -4 -4 -10z"/>
<path d="M155 1160 c-3 -5 1 -10 9 -10 9 0 16 5 16 10 0 6 -4 10 -9 10 -6 0
-13 -4 -16 -10z"/>
<path d="M28 1118 c-16 -5 -28 -15 -28 -21 0 -22 18 -40 30 -32 9 6 9 10 -1
17 -10 7 -8 8 7 3 19 -5 22 -2 20 20 0 14 -1 25 -1 24 0 0 -12 -5 -27 -11z"/>
<path d="M62 990 l3 -35 49 2 c47 1 66 13 66 41 0 9 -4 10 -19 1 -11 -7 -26
-9 -37 -4 -11 4 -25 7 -33 6 -8 -1 -18 3 -23 11 -6 8 -8 1 -6 -22z"/>
<path d="M4 140 c0 -80 2 -112 3 -73 2 40 2 106 0 146 -1 39 -3 7 -3 -73z"/>
<path d="M1792 3 c37 -2 100 -2 140 0 40 1 10 3 -67 3 -77 0 -110 -1 -73 -3z"/>
</g>
</svg>
